<?xml version="1.0" encoding="utf-8"?>
<!-- Generator: Adobe Illustrator 23.0.1, SVG Export Plug-In . SVG Version: 6.00 Build 0)  -->
<svg version="1.1" id="Layer_1" xmlns="http://www.w3.org/2000/svg" xmlns:xlink="http://www.w3.org/1999/xlink" x="0px" y="0px"
	 viewBox="0 0 560.2 120.1" style="enable-background:new 0 0 560.2 120.1;" xml:space="preserve">
<style type="text/css">
	.st0{fill:#27AFE2;}
	.st1{fill:#1D6589;}
</style>
<g>
	<rect x="341.8" y="24.6" class="st0" width="11" height="9.5"/>
	<path class="st0" d="M140.5,64.9h37.3c0.1-0.4,0.1-0.8,0.1-1.2v-1c0-3.5-0.5-6.7-1.4-9.7c-1-3-2.4-5.7-4.3-7.9s-4.2-4-6.9-5.3
		s-5.8-2-9.3-2c-3.3,0-6.3,0.6-9.1,1.9c-2.8,1.3-5.1,3-7.1,5.2s-3.6,4.8-4.7,7.8s-1.7,6.2-1.7,9.6c0,3.6,0.6,7,1.9,10s2.9,5.6,5,7.8
		c2.1,2.2,4.6,3.8,7.5,5s5.9,1.8,9.1,1.8c4.5,0,8.2-0.8,11.3-2.4s5.7-3.7,8.1-6.4l-4.4-3.9c-1.9,2-4.1,3.6-6.4,4.8
		c-2.3,1.2-5.1,1.8-8.4,1.8c-2.1,0-4-0.3-5.9-1.1c-1.9-0.7-3.6-1.7-5.1-3.1s-2.8-3-3.7-5C141.4,69.7,140.8,67.5,140.5,64.9
		 M140.5,59.7c0.2-2.3,0.8-4.4,1.6-6.4s1.9-3.6,3.3-5s2.9-2.5,4.6-3.4c1.8-0.8,3.7-1.2,5.7-1.2c2.4,0,4.4,0.4,6.2,1.3s3.3,2,4.5,3.5
		s2.2,3.2,2.9,5.1s1.1,4,1.3,6.1C170.6,59.7,140.5,59.7,140.5,59.7z"/>
	<path class="st0" d="M207.1,44.4c4.4,0,7.9,1.1,10.3,3.2c2.5,2.2,3.7,5.3,3.7,9.6v1.6c-2.1-0.6-4.3-1.1-6.5-1.5s-4.9-0.5-7.9-0.5
		s-5.7,0.3-8.1,1c-2.4,0.7-4.6,1.6-6.4,2.9s-3.2,2.9-4.1,4.8c-1,1.9-1.4,4.1-1.4,6.6s0.5,4.6,1.5,6.4s2.3,3.3,4,4.6s3.5,2.2,5.6,2.8
		c2.1,0.6,4.2,0.9,6.4,0.9c4.2,0,7.6-0.8,10.4-2.4c2.8-1.6,5-3.5,6.6-5.6v7.1h6.7V57.1c0-6.2-1.7-11-5.2-14.1
		c-3.5-3.2-8.4-4.8-14.8-4.8c-3.5,0-6.5,0.3-9.2,1s-5.3,1.7-7.9,2.9l2.1,5.7c2.2-1,4.4-1.9,6.7-2.5
		C201.8,44.7,204.4,44.4,207.1,44.4 M207.4,62c2.9,0,5.5,0.2,7.8,0.6c2.3,0.4,4.3,0.9,6.1,1.4v4.6c0,1.9-0.4,3.6-1.2,5.1
		s-1.9,2.9-3.4,4s-3.1,2-5,2.6s-3.9,1-6.1,1c-1.6,0-3.1-0.2-4.5-0.6s-2.7-1.1-3.8-1.9s-1.9-1.8-2.6-2.9c-0.6-1.2-1-2.5-1-4
		c0-3,1.2-5.4,3.5-7.2C199.6,62.9,203,62,207.4,62"/>
	<path class="st0" d="M275.1,72.6v-0.2c0-2.1-0.4-3.9-1.3-5.4s-2-2.7-3.5-3.7c-1.5-1-3.1-1.9-4.9-2.5c-1.8-0.7-3.6-1.3-5.4-1.8
		c-1.6-0.5-3.1-1-4.5-1.5c-1.5-0.5-2.7-1-3.9-1.6s-2-1.3-2.7-2.1s-1-1.8-1-2.9v-0.2c0-1.9,0.8-3.6,2.5-4.9s3.9-2,6.6-2
		c2.3,0,4.6,0.4,7,1.2s4.7,1.9,6.9,3.3l3.2-5.3c-2.4-1.6-5.1-2.8-8.1-3.8c-3-0.9-5.9-1.4-8.8-1.4c-2.3,0-4.4,0.3-6.4,1
		c-2,0.6-3.7,1.5-5.1,2.7c-1.4,1.2-2.5,2.6-3.3,4.3s-1.2,3.5-1.2,5.5v0.2c0,2.2,0.5,4,1.4,5.5s2.1,2.7,3.6,3.6s3.1,1.8,5,2.4
		s3.7,1.2,5.5,1.8c1.5,0.4,3,0.9,4.4,1.4s2.7,1,3.8,1.7s2,1.4,2.6,2.2c0.6,0.8,1,1.8,1,3v0.2c0,2.3-0.9,4.1-2.7,5.4
		c-1.8,1.3-4.1,2-7,2c-2.8,0-5.6-0.5-8.3-1.6c-2.8-1-5.4-2.5-8-4.4l-3.5,5c2.7,2.1,5.7,3.8,9.2,5s6.9,1.9,10.3,1.9
		c2.4,0,4.6-0.3,6.6-0.9s3.8-1.6,5.3-2.8c1.5-1.2,2.7-2.7,3.5-4.4C274.6,76.9,275.1,74.9,275.1,72.6"/>
	<path class="st0" d="M329.3,38.8h-7.5l-15,39.2l-17.1-39.2H282l21.4,46.8c-1.4,3.3-2.8,5.6-4.3,6.9s-3.2,1.9-5.4,1.9
		c-1.5,0-2.8-0.1-4-0.4c-1.1-0.3-2.3-0.7-3.4-1.3l-2.4,5.5c1.6,0.8,3.1,1.4,4.7,1.8s3.3,0.6,5.3,0.6c3.5,0,6.5-1,9-3
		s4.7-5.4,6.7-10.3L329.3,38.8z"/>
	<path class="st1" d="M387.2,67.6c0-3.2,0.4-5.9,1.2-8.3c0.8-2.4,1.9-4.4,3.4-6s3.2-2.8,5.2-3.5s4.2-1.2,6.6-1.2h0.6V36.9
		c-4.2-0.2-7.8,0.8-10.5,3c-2.8,2.2-4.9,5.1-6.5,8.7V37.8h-11v48h11L387.2,67.6L387.2,67.6z M335.7,37.8v9.5h6.1v25.3
		c0,2.7,0.3,4.9,1,6.7s1.6,3.2,2.9,4.3s2.7,1.9,4.4,2.4s3.5,0.7,5.5,0.7c2.1,0,3.9-0.2,5.5-0.6s3.1-1,4.5-1.8v-9
		c-2.2,1.1-4.5,1.6-6.8,1.6c-1.9,0-3.3-0.5-4.4-1.4s-1.5-2.5-1.5-4.6V47.3h12.9v-9.5C365.7,37.8,335.7,37.8,335.7,37.8z M540.5,57.4
		l19.1-19.5h-13.4l-19.9,21.3V19.5h-11v66.4h11V72.1l6.7-7l14.5,20.7h12.7L540.5,57.4z M505.2,77.9l-6.6-6.5
		c-1.8,1.8-3.6,3.2-5.6,4.3s-4.3,1.7-6.9,1.7c-2.1,0-4.1-0.4-5.8-1.2s-3.3-1.9-4.5-3.3c-1.3-1.4-2.3-3-3-4.9s-1-3.9-1-6.1
		c0-2.1,0.4-4.1,1-6c0.7-1.8,1.6-3.5,2.9-4.9c1.2-1.4,2.7-2.5,4.4-3.3c1.7-0.8,3.5-1.2,5.5-1.2c2.8,0,5.1,0.6,7,1.7
		c1.9,1.1,3.7,2.6,5.4,4.3l6.8-7.4c-2.2-2.5-4.9-4.5-7.9-6s-6.8-2.3-11.3-2.3c-3.6,0-6.9,0.7-10,2s-5.7,3.2-7.9,5.5s-3.9,5-5.2,8
		s-1.9,6.3-1.9,9.7c0,3.5,0.6,6.7,1.9,9.7s3,5.6,5.2,7.9s4.8,4.1,7.9,5.4s6.3,1.9,9.9,1.9c4.7,0,8.5-0.8,11.5-2.5
		C500.2,82.8,502.9,80.6,505.2,77.9 M451,85.8V57.4c0-6.4-1.7-11.4-5.2-15c-3.5-3.5-8.8-5.3-15.9-5.3c-3.9,0-7.3,0.4-10.1,1.1
		s-5.5,1.7-8.2,2.9l3,8.8c2.2-0.9,4.3-1.6,6.5-2.2c2.1-0.5,4.5-0.8,7.3-0.8c3.8,0,6.7,0.9,8.8,2.6s3,4.3,3,7.6v1.2
		c-1.9-0.6-3.8-1.1-5.9-1.5c-2-0.4-4.5-0.5-7.4-0.5c-2.8,0-5.4,0.3-7.8,1c-2.4,0.6-4.5,1.6-6.2,2.9c-1.7,1.3-3.1,2.9-4,4.8
		c-1,1.9-1.5,4.2-1.5,6.8V72c0,2.4,0.5,4.6,1.4,6.4s2.2,3.4,3.7,4.6s3.4,2.2,5.4,2.8s4.2,1,6.5,1c3.6,0,6.7-0.7,9.3-2
		c2.5-1.3,4.6-3,6.3-4.9v5.9H451L451,85.8z M440.4,68.5c0,1.5-0.3,2.9-1,4.1c-0.6,1.2-1.5,2.3-2.7,3.2s-2.5,1.6-4,2.1
		s-3.2,0.7-5,0.7c-2.6,0-4.8-0.6-6.6-1.8s-2.7-3-2.7-5.3v-0.2c0-2.5,1-4.4,2.9-5.7c1.9-1.3,4.6-2,8.1-2c2.1,0,4.1,0.2,6,0.6
		c1.9,0.4,3.6,0.8,5,1.4L440.4,68.5L440.4,68.5z"/>
	<path class="st1" d="M0,55.1C9,5,70.7-6.9,94.9,39.6C71.7,41.5,58,46.8,52.7,55.1h56.8C100.4-12.1,7.6-10.6,0,55.1"/>
	<path class="st1" d="M109.6,65c-9,50.1-70.7,62-94.9,15.5c23.2-1.9,36.9-7.2,42.2-15.5H0C9.2,132.2,102,130.7,109.6,65"/>
</g>
</svg>
